<?xml version="1.0" standalone="no"?>
<!DOCTYPE svg PUBLIC "-//W3C//DTD SVG 20010904//EN"
 "http://www.w3.org/TR/2001/REC-SVG-20010904/DTD/svg10.dtd">
<svg version="1.0" xmlns="http://www.w3.org/2000/svg"
 width="600.000000pt" height="600.000000pt" viewBox="0 0 600.000000 600.000000"
 preserveAspectRatio="xMidYMid meet">

<g transform="translate(0.000000,600.000000) scale(0.100000,-0.100000)"
fill="#000000" stroke="none">
<path d="M3135 4028 c-2 -7 -34 -134 -70 -283 -148 -612 -275 -1141 -280
-1162 -5 -23 -4 -23 94 -23 86 0 100 2 105 18 3 9 30 118 60 242 165 681 232
958 261 1075 18 72 30 133 28 138 -8 13 -193 8 -198 -5z"/>
<path d="M1260 3295 l0 -715 210 0 210 0 0 391 0 392 73 -107 c39 -58 159
-234 266 -391 l194 -285 208 0 209 0 0 715 0 715 -210 0 -210 0 -2 -389 -3
-389 -105 154 c-58 84 -177 259 -265 389 l-159 235 -208 0 -208 0 0 -715z"/>
<path d="M3862 3983 c-29 -73 -515 -1370 -519 -1385 -5 -17 10 -18 220 -18
l225 0 33 115 33 115 253 0 c194 0 255 -3 258 -12 2 -7 18 -59 35 -115 l31
-103 230 0 c181 0 230 3 227 13 -3 6 -123 328 -268 715 l-263 702 -242 0 -243
0 -10 -27z m326 -601 c40 -131 72 -244 72 -250 0 -9 -42 -12 -150 -12 -132 0
-150 2 -150 16 0 9 18 73 39 143 22 69 54 174 72 234 18 59 35 107 39 107 3 0
38 -107 78 -238z"/>
</g>
</svg>
